<?xml version="1.0" standalone="no"?>
<!DOCTYPE svg PUBLIC "-//W3C//DTD SVG 20010904//EN"
 "http://www.w3.org/TR/2001/REC-SVG-20010904/DTD/svg10.dtd">
<svg version="1.0" xmlns="http://www.w3.org/2000/svg"
 width="200.000000pt" height="200.000000pt" viewBox="0 0 200.000000 200.000000"
 preserveAspectRatio="xMidYMid meet">
<metadata>
Created by potrace 1.14, written by Peter Selinger 2001-2017
</metadata>
<g transform="translate(0.000000,200.000000) scale(0.100000,-0.100000)"
fill="#000000" stroke="none">
<path d="M579 1693 c-78 -66 -77 -201 2 -243 54 -29 136 10 165 77 56 130 -66
251 -167 166z"/>
<path d="M1060 1656 c0 -32 5 -37 73 -74 123 -69 128 -46 -47 -221 l-155 -155
-63 39 c-35 21 -99 63 -143 93 -108 75 -175 99 -261 93 -82 -5 -190 -253 -201
-461 l-4 -85 55 -115 c31 -64 56 -128 56 -146 0 -19 -18 -61 -50 -114 -29 -46
-50 -92 -48 -104 4 -29 48 -43 87 -26 37 15 124 129 146 189 13 39 13 47 -12
126 -15 47 -23 88 -19 92 16 17 147 -78 175 -128 11 -19 28 -82 38 -140 13
-80 22 -109 39 -126 26 -26 61 -30 89 -9 24 18 23 57 -4 191 -40 194 -43 198
-188 307 -62 46 -95 78 -99 95 -8 29 25 198 49 256 12 28 22 37 41 37 23 0 46
-14 234 -143 61 -42 92 -57 117 -57 35 0 55 20 55 55 0 9 66 89 148 177 l147
160 39 -44 c21 -23 49 -65 62 -91 25 -48 44 -54 44 -14 0 28 -42 118 -75 161
-15 20 -23 40 -19 50 9 24 -24 56 -56 54 -15 -1 -40 9 -61 24 -48 36 -148 88
-170 88 -15 0 -19 -8 -19 -34z"/>
<path d="M1623 1003 c-18 -7 -19 -603 -1 -621 16 -16 210 -16 226 0 9 9 12 92
12 314 0 266 -2 303 -16 308 -19 7 -203 7 -221 -1z"/>
<path d="M1322 852 c-9 -7 -12 -62 -10 -243 l3 -234 120 0 120 0 3 229 c2 160
-1 233 -9 242 -13 16 -204 20 -227 6z"/>
<path d="M996 704 c-3 -9 -6 -80 -6 -159 0 -79 3 -150 6 -159 9 -24 249 -24
258 0 12 31 7 309 -6 322 -8 8 -51 12 -129 12 -97 0 -118 -3 -123 -16z"/>
</g>
</svg>
